<mxfile host="app.diagrams.net" modified="2022-02-12T15:16:55.247Z" agent="5.0 (Windows NT 10.0; Win64; x64) AppleWebKit/537.36 (KHTML, like Gecko) Chrome/98.0.4758.82 Safari/537.36" etag="LTZE1uE5dETjCD7WtDe2" version="16.5.6" type="github">
  <diagram id="bJjdfScnOhEYDZ1nvRLR" name="Page-1">
    <mxGraphModel dx="1038" dy="547" grid="1" gridSize="10" guides="1" tooltips="1" connect="1" arrows="1" fold="1" page="1" pageScale="1" pageWidth="827" pageHeight="1169" math="0" shadow="0">
      <root>
        <mxCell id="0" />
        <mxCell id="bB3c_y69kQhv3heVyW8m-2" parent="0" />
        <mxCell id="bB3c_y69kQhv3heVyW8m-3" value="Region" style="points=[[0,0],[0.25,0],[0.5,0],[0.75,0],[1,0],[1,0.25],[1,0.5],[1,0.75],[1,1],[0.75,1],[0.5,1],[0.25,1],[0,1],[0,0.75],[0,0.5],[0,0.25]];outlineConnect=0;gradientColor=none;html=1;whiteSpace=wrap;fontSize=12;fontStyle=0;container=1;pointerEvents=0;collapsible=0;recursiveResize=0;shape=mxgraph.aws4.group;grIcon=mxgraph.aws4.group_region;strokeColor=#147EBA;fillColor=none;verticalAlign=top;align=left;spacingLeft=30;fontColor=#147EBA;dashed=1;" vertex="1" parent="bB3c_y69kQhv3heVyW8m-2">
          <mxGeometry x="34" y="90" width="760" height="550" as="geometry" />
        </mxCell>
        <mxCell id="bB3c_y69kQhv3heVyW8m-5" value="VPC" style="points=[[0,0],[0.25,0],[0.5,0],[0.75,0],[1,0],[1,0.25],[1,0.5],[1,0.75],[1,1],[0.75,1],[0.5,1],[0.25,1],[0,1],[0,0.75],[0,0.5],[0,0.25]];outlineConnect=0;gradientColor=none;html=1;whiteSpace=wrap;fontSize=12;fontStyle=0;container=1;pointerEvents=0;collapsible=0;recursiveResize=0;shape=mxgraph.aws4.group;grIcon=mxgraph.aws4.group_vpc;strokeColor=#248814;fillColor=none;verticalAlign=top;align=left;spacingLeft=30;fontColor=#AAB7B8;dashed=0;" vertex="1" parent="bB3c_y69kQhv3heVyW8m-3">
          <mxGeometry x="23" y="50" width="721" height="480" as="geometry" />
        </mxCell>
        <mxCell id="bB3c_y69kQhv3heVyW8m-7" value="Availability zone" style="sketch=0;outlineConnect=0;gradientColor=none;html=1;whiteSpace=wrap;fontSize=12;fontStyle=0;shape=mxgraph.aws4.group;grIcon=mxgraph.aws4.group_availability_zone;strokeColor=#545B64;fillColor=none;verticalAlign=top;align=left;spacingLeft=30;fontColor=#545B64;dashed=1;" vertex="1" parent="bB3c_y69kQhv3heVyW8m-5">
          <mxGeometry x="531" y="-10" width="90" height="500" as="geometry" />
        </mxCell>
        <mxCell id="bB3c_y69kQhv3heVyW8m-6" value="Availability zone" style="sketch=0;outlineConnect=0;gradientColor=none;html=1;whiteSpace=wrap;fontSize=12;fontStyle=0;shape=mxgraph.aws4.group;grIcon=mxgraph.aws4.group_availability_zone;strokeColor=#545B64;fillColor=none;verticalAlign=top;align=left;spacingLeft=30;fontColor=#545B64;dashed=1;" vertex="1" parent="bB3c_y69kQhv3heVyW8m-5">
          <mxGeometry x="30" y="-10" width="480" height="500" as="geometry" />
        </mxCell>
        <UserObject label="&lt;b&gt;VPC 10.0.0.0/16&lt;/b&gt;" placeholders="1" name="Variable" id="bB3c_y69kQhv3heVyW8m-9">
          <mxCell style="text;html=1;strokeColor=none;fillColor=none;align=center;verticalAlign=middle;whiteSpace=wrap;overflow=hidden;" vertex="1" parent="bB3c_y69kQhv3heVyW8m-5">
            <mxGeometry x="487" y="420" width="83" height="50" as="geometry" />
          </mxCell>
        </UserObject>
        <mxCell id="bB3c_y69kQhv3heVyW8m-8" value="Availability zone" style="sketch=0;outlineConnect=0;gradientColor=none;html=1;whiteSpace=wrap;fontSize=12;fontStyle=0;shape=mxgraph.aws4.group;grIcon=mxgraph.aws4.group_availability_zone;strokeColor=#545B64;fillColor=none;verticalAlign=top;align=left;spacingLeft=30;fontColor=#545B64;dashed=1;" vertex="1" parent="bB3c_y69kQhv3heVyW8m-5">
          <mxGeometry x="641" y="-10" width="80" height="500" as="geometry" />
        </mxCell>
        <mxCell id="bB3c_y69kQhv3heVyW8m-11" value="Public subnet" style="points=[[0,0],[0.25,0],[0.5,0],[0.75,0],[1,0],[1,0.25],[1,0.5],[1,0.75],[1,1],[0.75,1],[0.5,1],[0.25,1],[0,1],[0,0.75],[0,0.5],[0,0.25]];outlineConnect=0;gradientColor=none;html=1;whiteSpace=wrap;fontSize=12;fontStyle=0;container=1;pointerEvents=0;collapsible=0;recursiveResize=0;shape=mxgraph.aws4.group;grIcon=mxgraph.aws4.group_security_group;grStroke=0;strokeColor=#248814;fillColor=#E9F3E6;verticalAlign=top;align=left;spacingLeft=30;fontColor=#248814;dashed=0;" vertex="1" parent="bB3c_y69kQhv3heVyW8m-5">
          <mxGeometry x="50" y="10" width="440" height="210" as="geometry" />
        </mxCell>
        <mxCell id="bB3c_y69kQhv3heVyW8m-18" value="" style="outlineConnect=0;dashed=0;verticalLabelPosition=bottom;verticalAlign=top;align=center;html=1;shape=mxgraph.aws3.vpc_nat_gateway;fillColor=#F58534;gradientColor=none;" vertex="1" parent="bB3c_y69kQhv3heVyW8m-11">
          <mxGeometry x="190" width="33" height="30" as="geometry" />
        </mxCell>
        <mxCell id="bB3c_y69kQhv3heVyW8m-14" value="Private subnet" style="points=[[0,0],[0.25,0],[0.5,0],[0.75,0],[1,0],[1,0.25],[1,0.5],[1,0.75],[1,1],[0.75,1],[0.5,1],[0.25,1],[0,1],[0,0.75],[0,0.5],[0,0.25]];outlineConnect=0;gradientColor=none;html=1;whiteSpace=wrap;fontSize=12;fontStyle=0;container=1;pointerEvents=0;collapsible=0;recursiveResize=0;shape=mxgraph.aws4.group;grIcon=mxgraph.aws4.group_security_group;grStroke=0;strokeColor=#147EBA;fillColor=#E6F2F8;verticalAlign=top;align=left;spacingLeft=30;fontColor=#147EBA;dashed=0;" vertex="1" parent="bB3c_y69kQhv3heVyW8m-5">
          <mxGeometry x="50" y="260" width="440" height="210" as="geometry" />
        </mxCell>
        <mxCell id="bB3c_y69kQhv3heVyW8m-20" value="&lt;b&gt;10.0.0.0/24&lt;/b&gt;" style="text;html=1;strokeColor=none;fillColor=none;align=center;verticalAlign=middle;whiteSpace=wrap;rounded=0;" vertex="1" parent="bB3c_y69kQhv3heVyW8m-5">
          <mxGeometry x="240" y="190" width="60" height="30" as="geometry" />
        </mxCell>
        <mxCell id="bB3c_y69kQhv3heVyW8m-16" value="&lt;b&gt;10.0.0.0/24&lt;/b&gt;" style="text;html=1;strokeColor=none;fillColor=none;align=center;verticalAlign=middle;whiteSpace=wrap;rounded=0;" vertex="1" parent="bB3c_y69kQhv3heVyW8m-5">
          <mxGeometry x="240" y="440" width="60" height="30" as="geometry" />
        </mxCell>
        <mxCell id="bB3c_y69kQhv3heVyW8m-21" value="" style="outlineConnect=0;dashed=0;verticalLabelPosition=bottom;verticalAlign=top;align=center;html=1;shape=mxgraph.aws3.router;fillColor=#F58534;gradientColor=none;" vertex="1" parent="bB3c_y69kQhv3heVyW8m-5">
          <mxGeometry x="457" y="225" width="30" height="30" as="geometry" />
        </mxCell>
        <mxCell id="bB3c_y69kQhv3heVyW8m-10" value="" style="outlineConnect=0;dashed=0;verticalLabelPosition=bottom;verticalAlign=top;align=center;html=1;shape=mxgraph.aws3.internet_gateway;fillColor=#F58534;gradientColor=none;" vertex="1" parent="bB3c_y69kQhv3heVyW8m-5">
          <mxGeometry x="490" y="-30" width="40" height="40" as="geometry" />
        </mxCell>
        <mxCell id="bB3c_y69kQhv3heVyW8m-27" value="" style="endArrow=classic;startArrow=classic;html=1;rounded=0;entryX=0.855;entryY=0.145;entryDx=0;entryDy=0;entryPerimeter=0;exitX=0.5;exitY=1;exitDx=0;exitDy=0;exitPerimeter=0;" edge="1" parent="bB3c_y69kQhv3heVyW8m-5" source="bB3c_y69kQhv3heVyW8m-10" target="bB3c_y69kQhv3heVyW8m-21">
          <mxGeometry width="50" height="50" relative="1" as="geometry">
            <mxPoint x="313" y="250" as="sourcePoint" />
            <mxPoint x="363" y="200" as="targetPoint" />
          </mxGeometry>
        </mxCell>
        <mxCell id="bB3c_y69kQhv3heVyW8m-28" value="" style="endArrow=classic;html=1;rounded=0;entryX=0.145;entryY=0.145;entryDx=0;entryDy=0;entryPerimeter=0;exitX=0.855;exitY=0.855;exitDx=0;exitDy=0;exitPerimeter=0;" edge="1" parent="bB3c_y69kQhv3heVyW8m-5" source="bB3c_y69kQhv3heVyW8m-18" target="bB3c_y69kQhv3heVyW8m-21">
          <mxGeometry width="50" height="50" relative="1" as="geometry">
            <mxPoint x="313" y="250" as="sourcePoint" />
            <mxPoint x="363" y="200" as="targetPoint" />
          </mxGeometry>
        </mxCell>
        <mxCell id="bB3c_y69kQhv3heVyW8m-22" value="" style="outlineConnect=0;dashed=0;verticalLabelPosition=bottom;verticalAlign=top;align=center;html=1;shape=mxgraph.aws3.internet_3;fillColor=#D2D3D3;gradientColor=none;" vertex="1" parent="bB3c_y69kQhv3heVyW8m-3">
          <mxGeometry x="466" width="34" height="20" as="geometry" />
        </mxCell>
        <mxCell id="bB3c_y69kQhv3heVyW8m-24" value="" style="endArrow=classic;startArrow=classic;html=1;rounded=0;exitX=0.5;exitY=1;exitDx=0;exitDy=0;exitPerimeter=0;" edge="1" parent="bB3c_y69kQhv3heVyW8m-3" source="bB3c_y69kQhv3heVyW8m-22" target="bB3c_y69kQhv3heVyW8m-10">
          <mxGeometry width="50" height="50" relative="1" as="geometry">
            <mxPoint x="406" y="120" as="sourcePoint" />
            <mxPoint x="456" y="70" as="targetPoint" />
          </mxGeometry>
        </mxCell>
      </root>
    </mxGraphModel>
  </diagram>
</mxfile>
